<svg xmlns="http://www.w3.org/2000/svg" width="888.5" height="592.3"><path fill="#a0616a" d="M422 302h-39l3-32h31l5 32z"/><path d="M422 302h-39l3-32h31l5 32z" opacity=".1"/><circle cx="130.6" cy="150.3" r="31.9" fill="#ff6884"/><path fill="#f2f2f2" d="M275 567v5h-77l-2-5c-9-27 6-72-13-138-15-50-42-88-55-106-15-22-33-43-53-76a578 578 0 0 1-32-59l7 8c14 20 23 28 35 42l28 36c31 41 46 62 51 77 2 4 9 27 24 55 7 14 11 21 13 20 5-1-2-60-26-119l-13-28A3167 3167 0 0 0 48 62l-3-4-14-19A882 882 0 0 1 0 1c1-2 4-1 8 0l1 1 9 4c12 6 24 16 35 28l12 15a419 419 0 0 1 46 78c28 61 58 130 60 130 2-1-32-87-42-134-3-16-4-27 1-29l2-1 8 1c5 1 11 16 17 36 15 53 29 145 29 145 15 92 37 166 42 165 3 0-1-23 2-62 3-27 6-26 16-75l23-116v-8c1-4 2-8 5-10 5-4 13-2 16 0 2 1 4 4 4 8 2 26-35 101-48 201-6 51-10 78 0 114s27 59 29 75ZM614 567v5h77l1-5c10-27-6-72 14-138 14-50 42-88 54-106 16-22 33-43 54-76a578 578 0 0 0 32-59l-8 8c-14 20-22 28-34 42l-28 36c-31 41-47 62-52 77-1 4-9 27-23 55-8 14-11 21-13 20-6-1 2-60 26-119l13-28A3167 3167 0 0 1 841 62l2-4 14-19a882 882 0 0 0 31-38c-1-2-4-1-7 0l-2 1-9 4c-12 6-24 16-35 28l-11 15c-13 16-23 33-31 48l-16 30-59 130c-2-1 32-87 41-134 4-16 4-27 0-29h-1l-1-1-8 1c-6 1-12 16-17 36-16 53-30 145-30 145-14 92-36 166-41 165-3 0 1-23-3-62-3-27-6-26-16-75l-23-116v-8c-1-4-2-8-5-10-5-4-12-2-15 0-3 1-4 4-5 8-1 26 36 101 48 201 7 51 10 78 0 114-9 36-26 59-28 75Z"/><path fill="#e6e6e6" d="m714 570-1 1H131v-2h582l1 1Z"/><path fill="#a0616a" d="m366 535 7 29 20-3-5-30-22 4zM476 535l-6 29-21-3 6-30 21 4z"/><path fill="#ccc" d="m515 467-37-112c-8-26-32-43-58-43-30 0-55 21-60 50l-21 108c-3 16 9 30 24 31v74h6v-74h120v74h6v-74c15-3 25-19 20-34Z"/><path fill="#2f2e41" d="m439 391-70 2s-26 47 20 53 87-1 88-21-12-35-38-34Z"/><path fill="#2f2e41" d="M382 396s-26 3-28 10c-3 7-4 40-4 40l11 94 29-4-7-90 34-7-35-43ZM377 551s-9-6-11-3l-15 15-21 13s-18 17 8 16c25 0 39-8 39-8s24 0 23-7c0-7-8-25-8-25l-15-1ZM460 396s27 3 29 10 3 40 3 40l-10 94-29-4 6-90-33-7 34-43ZM466 551s9-6 11-3l14 15 21 13s18 17-7 16-39-8-39-8-24 0-24-7c1-7 9-25 9-25l15-1Z"/><path fill="#3f3d56" d="M418 286h-33l-25 11 6 75s-7 23 1 25c9 1 57 9 70 2s24-5 24-5l-15-100-28-8Z"/><circle cx="402.5" cy="251.7" r="30.8" fill="#a0616a"/><path fill="#2f2e41" d="m371 257 5 7 7-11s1 10 21 6l25-4 3 10 2-12c0-5 15-15-1-24s-7-18-26-17c-19 0-30 0-32 7s-6 15-6 22l2 16Z"/><path fill="#a0616a" d="M429 392c-7 2-15 0-16-4-2-5 3-11 10-13 3-1 6-2 10-1l31-10 4 15-31 8-8 5ZM285 358c-8-3-12-9-10-14 3-4 10-5 17-2 3 1 5 3 7 6l30 14-7 14-28-16c-4 0-7 0-9-2Z"/><path fill="#3f3d56" d="M360 297s12 5 11 18-9 31-9 31-1 40-12 45-45-24-45-24l8-15 14-2 33-53ZM438 296s11-4 20 6 14 29 14 29 28 30 23 41c-6 11-50 13-50 13l-5-16 10-12-12-61Z"/><path fill="#6c63ff" d="M468 409h-97c-5 0-10-4-10-10v-56c0-6 5-10 10-10h97c6 0 10 4 10 10v56c0 6-4 10-10 10Z"/><g fill="#f2f2f2"><path d="M212 388c-2-1-6 4-8 3s1-7 0-15c-1-1-2-10-6-11-7-2-16 28-26 26l-12-3-5 1c-2 1-1 3 0 8 2 7 0 8 1 14 2 4 3 6 2 7-1 2-5-1-7 1-2 1-1 7 1 10 3 7 7 9 11 13s10 10 13 22l23 107c-5-22-15-84-18-107-1-7-2-14 3-19 4-6 12-9 19-17 1-1 4-3 3-5 0-2-3-2-3-3-1-2 2-5 5-9s3-7 4-9c0-1 3-12 0-14Z"/><path d="M118 510c-2 1 0 4-1 5s-3-3-8-4c0-1-5-3-7-1-2 3 9 16 6 21-1 1-3 1-5 5l-2 2 5 2 7 4 4 1-2 4 5 2c5 1 7-1 10-2s8-1 15 1l59 19-58-22c-4-1-7-3-9-7-1-3 0-8-2-14l-2-3-2 1c-2-1-2-3-3-6l-3-4c-1 0-6-5-7-4ZM148 500l-5-7v-1l-2-8-1-2-3-6c0-1 0-5 2-6h2l1-3v-3l1-1 1-4c2-1 3 0 4 1a20 20 0 0 1 4 2c1 1 5-2 6-3 3-3 5-5 8-4 1 1 2 3 1 7v3l2 1c1 1 1 4-2 8a14 14 0 0 1-4 5v1l-3 4-5 2-4 1-2 6-1 7ZM125 455l-5 7c-4 1-7 2-9 4v1l-5 4c-2 1-5 2-7 0l-1-2H87l-1-4a20 20 0 0 1 2-5l-5-4c-3-2-6-4-5-7 0-2 2-3 6-3h3v-2c1-2 4-3 8-1a14 14 0 0 1 6 3l1-1c2 0 3 0 5 2l3 5 3 3 6 1 6-1ZM109 437l-5-7v-1l-2-9-1-1-3-6c0-1 0-5 3-6h1l1-4 1-2v-1l1-4h4a20 20 0 0 1 4 3l6-4c3-2 5-4 8-3 1 1 2 3 1 7v3l2 1c1 1 1 4-2 8a14 14 0 0 1-4 4v2l-3 3-5 3-4 1-2 6-1 7Z"/><path d="M201 570h-2l-2-2 2 2-2 1-1-1-22-25c-8-10-16-20-22-31l-16-26-7-15c-7-13-13-26-22-38-2-3-6-9-14-13-4-3-9-4-14-5v-4l16 5c9 5 13 11 15 15 9 12 16 25 22 38l8 15 15 26 22 31 22 24 2 3Z"/><path d="M76 427c-4 2-7 2-12 0l-7-5-6-7-3-4 1-4v-1c-1-2 1-3 2-3l2-1 1-2 3-3 5-3c5-1 9 1 13 3l7 5 3 4c1 2 0 3-1 7l-3 7-5 7Z"/></g><path fill="#3f3d56" d="m235 352 27-6 2 5 13-3 9-3 8-16-6-17h-17l-6 1-15 3c-1 2 0 5 2 6h1l-22 4s-6 12 4 26Z"/><path fill="#2f2e41" d="m265 313 12 35 9-3 8-16-6-17h-17l-6 1z"/><ellipse cx="260.4" cy="312.6" fill="#3f3d56" rx="3.4" ry="1.7" transform="rotate(-12 260 313)"/><path fill="#2f2e41" d="m683 574-12-28h-1v-35h-11v35l-13 28a1 1 0 0 0 2 2l13-16 2 15a1 1 0 0 0 3 0l2-14 13 14a1 1 0 0 0 2-1Z"/><path fill="#6c63ff" d="M591 471c-2 14 28 38 72 44s86-3 89-16-33-28-76-35-83-7-85 7Z"/><path d="M591 471c-2 14 28 38 72 44s86-3 89-16-33-28-76-35-83-7-85 7Z" opacity=".3"/><path fill="#6c63ff" d="M593 469c-2 11 27 30 71 37s86 2 88-9-33-26-76-33-81-6-83 5Z"/><path fill="#fff" d="M692 302H528c-6 0-12-5-12-12V166c0-6 6-12 12-12h164c7 0 12 6 12 12v124c0 7-5 12-12 12Z"/><path fill="#3f3d56" d="M692 302H528c-6 0-12-5-12-12V166c0-6 6-12 12-12h164c7 0 12 6 12 12v124c0 7-5 12-12 12ZM528 156c-5 0-10 5-10 10v124c0 6 5 10 10 10h164c6 0 10-4 10-10V166c0-5-4-10-10-10H528Z"/><circle cx="674.3" cy="166.3" r="3" fill="#3f3d56"/><circle cx="682.3" cy="166.3" r="3" fill="#3f3d56"/><circle cx="690.3" cy="166.3" r="3" fill="#3f3d56"/><path fill="#e6e6e6" d="M533 215a2 2 0 0 0 0 3h155a2 2 0 0 0 0-3H533Z"/><path fill="#6c63ff" d="M660 214v4H532l-1-2 2-2h127Z"/><path fill="#e6e6e6" d="M686 207h-20a4 4 0 0 1 0-8h20a4 4 0 0 1 0 8ZM555 186h-20a4 4 0 0 1 0-8h20a4 4 0 0 1 0 8ZM533 260a2 2 0 0 0 0 3h155a2 2 0 0 0 0-3H533Z"/><path fill="#6c63ff" d="M583 259v4h-51l-1-2 2-2h50Z"/><path fill="#e6e6e6" d="M686 252h-20a4 4 0 0 1 0-8h20a4 4 0 0 1 0 8Z"/></svg>