<svg xmlns="http://www.w3.org/2000/svg" width="802" height="833.5" data-name="Layer 1"><path fill="#3f3d56" d="M802 433a399 399 0 0 1-34 162l-3 6-1 1-1 3-1 1-2 5-2 4-2 5-3 4-2 5-3 5-3 4v1l-1 1-1 1-1 3-5 7-8 12-5 7-3 4-3 5-1 1-5 5v1l-2 2v1l-3 3-2 2-1 1-1 1-2 2v1a402 402 0 0 1-72 64 3 3 0 0 1-1 0l-1 1a351 351 0 0 1-11 7 259 259 0 0 1-3 2l-2 1-1 1-2 1-4 3h-2l-1 1-5 3-3 2-8 4-6 3-3 2-3 1h-1l-1 1-2 1-2 1a376 376 0 0 1-14 6 392 392 0 0 1-42 14l-2 1-18 4-32 6-4 1-5 1a497 497 0 0 1-8 0l-7 1h-3q-15 2-31 2l-34-2-7-1h-6l-3-1h-3a66 66 0 0 1-5-1 395 395 0 0 1-60-13l-4-1-1-1-8-2-11-4-3-2-6-2-11-4-7-4-2-1-2-1-11-5-13-7-10-6-12-8-4-2-3-2-12-9-11-8-15-13q-14-11-26-24a62 62 0 0 1-3-4l-4-4-5-6-4-4-2-3a168 168 0 0 1-4-4l-2-3-1-1-6-8-2-3-8-11-3-4-2-4-3-5-3-4a217 217 0 0 1-4-6v-1a593 593 0 0 1-12-22l-2-3-1-2a2 2 0 0 1 0-1v-1a1 1 0 0 1-1 0 145 145 0 0 1-2-6l-1-2-2-3-1-4a32 32 0 0 1-1-2l-2-4-2-5-2-4v-1a399 399 0 0 1-20-70 400 400 0 0 1-5-42v-2l-1-28v-13a399 399 0 0 1 89-239l7-9 8-9 6-7 1-1a400 400 0 0 1 39-35 237 237 0 0 1 9-7l5-4q13-10 27-18l12-7a306 306 0 0 1 10-6 402 402 0 0 1 385 5l1 1 5 3 7 4 32 22a336 336 0 0 1 11 8 402 402 0 0 1 47 46h1l2 3 3 3a402 402 0 0 1 33 45l11 18a399 399 0 0 1 51 197Z"/><path fill="#3f3d56" d="m683 25 24 649-2 4a110 110 0 0 1-4 4 429 429 0 0 1-72 75v1l-1-1-1 1-7 6-4 3-2 2h-1l-2 1-1 2-6 4-2 1-1 1-5 3a357 357 0 0 1-23 14h-1l-1 1H232l-2-1-2-1-11-6-23-15-12-9-4-3-3-3-12-9-11-11-15-14q-14-14-26-29l-1-1-6-7 20-662a32 32 0 0 1 3-12c3-8 9-13 15-13h523c7 0 13 5 16 13v1a32 32 0 0 1 2 11Z"/><ellipse cx="190.6" cy="43.6" fill="#fff" rx="27" ry="31.4"/><path fill="#fff" d="M477 128c-46 12-96 19-148 21a184 184 0 0 1-22 0c-17-1-31-7-47-9l-23-4 5-7 50 8c28 4 60 0 81-10l29-16a13 13 0 0 1 5-1l8 2c17 9 43 16 66 12 2 2-2 3-4 4ZM468 238l1-1a24 24 0 0 1-4-2ZM660 261l-41 3a254 254 0 0 1-31-1c-22-2-41-9-63-12-20-4-44-6-56-14 32-5 66 6 99 10a237 237 0 0 0 81-4l11 18Z"/><path fill="#2f2e41" d="M381 502v-10a14 14 0 0 0-14-14v-37h-3v37h-14v24h-68v274h150V556a54 54 0 0 0-51-54Z"/><path fill="#fff" d="M307 541h20v16h-20zM340 541h19v16h-19zM372 541h20v16h-20zM307 581h20v16h-20zM340 581h19v16h-19zM372 581h20v16h-20zM307 622h20v16h-20zM340 622h19v16h-19zM372 622h20v16h-20zM307 662h20v16h-20zM340 662h19v16h-19zM372 662h20v16h-20zM307 703h20v16h-20zM340 703h19v16h-19zM372 703h20v16h-20zM307 744h20v15h-20zM340 744h19v15h-19zM372 744h20v15h-20z"/><path fill="#2f2e41" d="M286 422v354h-92l-12-8-4-2-3-2-12-9-11-8-15-13V368h27v-42h27v-41h3v41h20a14 14 0 0 1 14 14v28h4a54 54 0 0 1 52 39 56 56 0 0 1 2 6 54 54 0 0 1 0 9Z"/><path fill="#fff" d="M179 400h65v5h-65zM179 430h65v5h-65zM179 459h65v5h-65zM179 489h65v5h-65zM179 518h65v5h-65zM179 548h65v4h-65zM179 577h65v5h-65zM179 606h65v5h-65zM179 636h65v5h-65zM179 665h65v5h-65zM179 695h65v4h-65zM179 724h65v5h-65zM186 334h20v16h-20z"/><path fill="#2f2e41" d="M681 14v-1c-3-8-9-13-16-13H142c-6 0-12 5-15 13a32 32 0 0 0-3 12l-20 677a318 318 0 0 0 6 7l20-684a22 22 0 0 1 1-6c2-6 6-11 11-11h523a9 9 0 0 1 4 1c4 2 8 8 8 15v1l24 657 2-2 1-1 1-1 2-4-24-649a32 32 0 0 0-2-11ZM217 789l11 5 2 1 2 1h339l1-1h1l3-1 3-2 6-3Z"/><path fill="#2f2e41" d="M127 84h553v7H127zM122 170h566v7H122z"/><path fill="#2f2e41" d="M213 304h-6L227 3h6l-20 301zM604 306h-6L574 3h6l24 303z"/><path fill="#2f2e41" d="M123 296h568v20H123zM408 285h6a11 11 0 0 1 11 11h-28a11 11 0 0 1 11-11Z"/><path fill="#ccc" d="M206 765c-9 9-9 13-12 11l-12-8-4-2-3-2-12-9-11-8-15-13q-14-11-26-24a62 62 0 0 1-3-4l4-14 5-215v-70l5-94v-6l2-125v-12l-14-14 21-65V14c11-10 26-12 44-10h3v4l1 8 3 57v1l1 10v7l1 18-16 61 1 7 3 50v7l1 14 4 59v6l1 13 1 15v9l2 20v5l1 25 1 4v9l1 12v5l1 5v13l1 11v5l1 8v6l1 11v8l1 10v5l1 6v5l1 18 1 5v6l1 23v2l1 4v1l1 24v3l1 2v4l1 21v5l1 3v5l1 16v5l1 8v5l1 12v4l1 13v12l1 5ZM704 695l-1 1-2 2v1a402 402 0 0 1-72 64 3 3 0 0 1-1 0l-1 1a351 351 0 0 1-11 7 259 259 0 0 1-3 2l-2 1-1 1-2 1v-28l1-16 6-95 1-15v-4l3-43 1-14 2-34 1-15 1-14v-3l1-17v-1l1-12 1-17 1-11v-12l1-10v-9l3-37v-9l1-10v-7l1-15 1-15 1-6 1-21 1-12v-11l1-18 1-11 1-7 3-50v-7l1-17-22-37 2-25 1-7 4-74V4c20-2 36 0 47 10v77l7 76v10l2 130v6l5 94v6l2 64v20l11 182Z"/><path fill="#2f2e41" d="m620 768-4 3a259 259 0 0 1-3 2l-2 1-1 1-2 1-4 3h-2l-1 1-5 3-3 2-8 4-6 3-3 2-3 1h-1l-1 1-2 1-2 1a376 376 0 0 1-14 6 392 392 0 0 1-42 14l-2 1-18 4-32 6-4 1-5 1a497 497 0 0 1-8 0l-7 1h-3q-15 2-31 2l-34-2-7-1h-6l-3-1h-3a66 66 0 0 1-5-1 395 395 0 0 1-60-13l-4-1-1-1-8-2-11-4-3-2-6-2-11-4-7-4-2-1-2-1-11-5-13-7-10-6-12-8Z"/><ellipse cx="257.6" cy="51.8" fill="#fff" rx="2" ry="2.3"/><ellipse cx="379.1" cy="54.7" fill="#fff" rx="2" ry="2.3"/><ellipse cx="454.1" cy="57" fill="#fff" rx="2" ry="2.3"/><circle cx="559.6" cy="352" r="2" fill="#fff"/><circle cx="438.1" cy="239.5" r="2" fill="#fff"/><circle cx="337.6" cy="342" r="2" fill="#fff"/><circle cx="320.6" cy="237" r="2" fill="#fff"/><circle cx="186.6" cy="216" r="2" fill="#fff"/><path fill="#b3b3b3" d="M642 627h2l3 110h-2zM673 196h2l3 202h-2z"/><path fill="#f2f2f2" d="M606 404h-28a4 4 0 0 0-4 2 6 6 0 0 0-1-1 7 7 0 1 0 0 14 7 7 0 0 0 3-1l1 6 2 23a4 4 0 0 0 0 1 4 4 0 0 0 4 2h18a4 4 0 0 0 4-2 5 5 0 0 0 0-1l5-37a4 4 0 0 0-4-6Zm-33 13a5 5 0 0 1 0-10h1a4 4 0 0 0 0 3l2 6a5 5 0 0 1-3 1Z"/><path fill="#2f2e41" d="m596 783-4-9 2-1 2-1 8-4 5-2 2-1 1-1 3 4 1 2v1l-2 2h-1l-2 1-1 1-6 4-2 1h-1l-5 3Z"/><g fill="#fff" opacity=".5"><path d="M592 389a8 8 0 0 0 0-1 7 7 0 0 1-1 0ZM594 369c-2-4-4-7-4-11v-12c0-4 0-8-3-11-3 10-6 20-2 30l7 11c1 4 2 9 0 12 3-1 5-5 5-8 1-4-1-8-3-11Z"/></g><g fill="#fff" opacity=".5"><path d="M588 402ZM589 394a15 15 0 0 1-2-4 19 19 0 0 1 0-5 7 7 0 0 0 0-4c-2 4-3 8-1 12l2 4a5 5 0 0 1 0 5 4 4 0 0 0 2-4 9 9 0 0 0-1-4Z"/></g><path fill="#2f2e41" d="M196 95h-63a7 7 0 1 1 0-14h63a7 7 0 0 1 0 14ZM736 14H75a7 7 0 0 1 0-14h661a7 7 0 0 1 0 14ZM174 165h-63a7 7 0 0 1 0-14h63a7 7 0 0 1 0 14ZM676 95h-63a7 7 0 1 1 0-14h63a7 7 0 0 1 0 14ZM701 162h-63a7 7 0 0 1 0-14h63a7 7 0 0 1 0 14Z"/><path fill="#b3b3b3" d="M135 187h2l3 202h-2zM155 419h2l3 202h-2zM133 590h2l3 110h-2z"/><path fill="#2f2e41" d="M533 660v-4a6 6 0 0 0-5-6v-15h-2v15h-5v10h-27v109h59v-88a21 21 0 0 0-20-21Z"/><path fill="#fff" d="M504 675h8v7h-8zM517 675h8v7h-8zM530 675h8v7h-8zM504 691h8v7h-8zM517 691h8v7h-8zM530 691h8v7h-8zM504 708h8v6h-8zM517 708h8v6h-8zM530 708h8v6h-8zM504 724h8v6h-8zM517 724h8v6h-8zM530 724h8v6h-8zM504 740h8v6h-8zM517 740h8v6h-8zM530 740h8v6h-8zM504 756h8v6h-8zM517 756h8v6h-8zM530 756h8v6h-8z"/><path fill="#2f2e41" d="M474 606h-2v-11a6 6 0 0 0-6-5h-7v-17h-2v17h-10v16h-11v163h59V628a21 21 0 0 0-21-22Z"/><path fill="#fff" d="M453 619h26v2h-26zM453 631h26v2h-26zM453 643h26v2h-26zM453 655h26v1h-26zM453 666h26v2h-26zM453 678h26v2h-26zM453 690h26v2h-26zM453 701h26v2h-26zM453 713h26v2h-26zM453 725h26v2h-26zM453 737h26v1h-26zM453 748h26v2h-26zM455 593h8v6h-8z"/><path fill="#2f2e41" d="M717 670v10l-5 5v1l-2 2v1a325 325 0 0 1-3 3l-2 2a98 98 0 0 1-4 4v1-29Z"/><path fill="#2f2e41" d="m737 651-8 12-5 7-3 4-3 5-1 1-5 5v1l-2 2v1a325 325 0 0 1-3 3l-2 2-2 2h-32a13 13 0 0 1-14-13v-19a13 13 0 0 1 14-13Z"/><path fill="#2f2e41" d="M755 489a19 19 0 0 0-7-1h-5a20 20 0 0 0-6 1 19 19 0 0 0-13 18v160a18 18 0 0 0 0 3l5-7 8-12 5-7a398 398 0 0 0 26-49v-88a19 19 0 0 0-13-18Z"/><path fill="#ffb6b6" d="m521 782-13-6 19-57 20 10-26 53zM613 773a297 297 0 0 1-12 7l-2 1-2-6-1-3-2-4-2-7-14-36 21-6 1 4 1 1 7 31 2 6 1 4 1 3v4ZM558 535a14 14 0 0 0 19 5 14 14 0 0 0 2-1l43 24-2-25-41-20a14 14 0 0 0-17-2 14 14 0 0 0-5 19h1Z"/><path fill="#6c63ff" d="m603 554 8 5 34 20a20 20 0 0 0 28-6 20 20 0 0 0 2-14l-15-76a21 21 0 0 0-28-16 20 20 0 0 0-12 25l16 53-25-11Z"/><path fill="#2f2e41" d="M743 629v-2a270 270 0 0 0-8-30 92 92 0 0 0-7-17l-1-1-3 1-48 17-13 5h-1l-2 10-33-4-26-4-8-1a25 25 0 0 0-19 5 26 26 0 0 0-10 18v2l-2 86v1l1 2 22 44h32l-15-39a17 17 0 0 0 2-15l2-5c3-11 2-16-1-22a54 54 0 0 1-3-16v-7l25 5 8 2 22 4a163 163 0 0 0 61 1h1a19 19 0 0 0 5-2 29 29 0 0 0 5-4l8-12 5-7c2-5 2-11 1-15Z"/><path fill="#2f2e41" d="m744 613-1-2a137 137 0 0 0-5-14l-9-17-5-9-3-5-1-1-46 6-18 3-1 8v3l-1 5-1 8-26-3-26-4-15-1a25 25 0 0 0-18 5 26 26 0 0 0-10 17l-1 2-13 32a206 206 0 0 0-15 60l-10 32h1l21 2 6 1 12-18 4-6a95 95 0 0 0 5-11l27-63 6 1 26 4c28 3 52 3 73 0l18-2 6-2h1a26 26 0 0 0 18-17 26 26 0 0 0 1-14Z"/><ellipse cx="644.1" cy="390.6" fill="#ffb6b6" rx="32.4" ry="33.1"/><path fill="#6c63ff" d="M721 567v-1l-5-12c-2-4-4-7-4-11v-21a267 267 0 0 0-22-53 40 40 0 0 0-33-28 9 9 0 0 0 1-5 9 9 0 0 0-3-6 9 9 0 0 0-7-2l-15 1a9 9 0 0 0-8 11 10 10 0 0 0 1 2 88 88 0 0 0-22 49 52 52 0 0 0 0 5 53 53 0 0 0 3 17 71 71 0 0 0 10 17l3 3 3 4 2 4 3 4 13 30h7l1 6v2l4 15v1l6-2 36-17 26-13Z"/><path d="M807 546a71 71 0 0 0 12 20l3 4 5 8c19-15 34-70 34-70l-21-4Z" opacity=".2" style="isolation:isolate" transform="translate(-199 -33)"/><path fill="#ffb6b6" d="M595 427a14 14 0 0 1-5 19 14 14 0 0 1-2 1l2 50-22-14 2-45a14 14 0 0 1 6-16 14 14 0 0 1 19 4v1Z"/><path fill="#6c63ff" d="m592 478-24 3 1 49a20 20 0 0 0 10 17 20 20 0 0 0 23-2l56-54a21 21 0 0 0 2-29 20 20 0 0 0-29-2 21 21 0 0 0-2 2l-36 42Z"/><path fill="#2f2e41" d="m526 773-15-7-2-1-4 9-26 6a6 6 0 0 0-1 11l25 11 8-8-2 10 10 4 10-33ZM731 376c-6-6-8-15-13-22-4-7-12-14-20-12-6 1-10 6-12 11l-3 18c0-12-8-24-19-28s-24 1-31 10a17 17 0 0 0-23 0c-6 5-7 16-3 23s15 10 22 6l3 2c-2 5 1 11 6 13 4 2 9 1 10 5 1 3 0 6-2 8s-5 5-5 8c0 4 4 7 9 8 10 3 21-2 27-11v-1a39 39 0 0 0 8-30c0-2 0-3 2-4 6-2 23 3 28 7l15 13c5 4 11 8 18 7 5-1 9-5 12-10 3-4 5-9 6-14-11 6-27 3-35-7Z"/><path fill="#2f2e41" d="M629 763h-1l-1 1-7 4-4 3V586c0-5-2-10-4-10H446c-2 0-4 5-4 10v245l-7 1h-3l-1-3V569a57 57 0 0 1 1-6c1-9 5-16 10-16h175a5 5 0 0 1 1 1 7 7 0 0 1 3 1 14 14 0 0 1 2 3c2 4 4 10 4 16v27l1 13v54ZM498 488l-12 51-7 8h-6l22-93 1 16 2 18z"/><path fill="#2f2e41" d="M553 540h-74l-4-1h-5a3 3 0 0 0-2 1l-8 9a2 2 0 0 0-1 0 1 1 0 0 0 0 1 3 3 0 0 0 3 4h88a3 3 0 0 0 2-2l1-2 1-3 2-3a3 3 0 0 0 0-1 3 3 0 0 0-3-3Z"/><path d="m752 584-1 1a3 3 0 0 1-2 2h-88a3 3 0 0 1-3-4Z" opacity=".2" style="isolation:isolate" transform="translate(-199 -33)"/><path d="m496 470-18 77h-5l22-93 1 16z" opacity=".2" style="isolation:isolate"/><path fill="#2f2e41" d="m520 484-27-203a3 3 0 0 0-1-2l-19-23-1-1a3 3 0 0 0-2 0h-3a3 3 0 0 0-3 3l28 210 2 13 2 15v1l3 23a3 3 0 0 0 1 2 3 3 0 0 0 2 1l2-1a3 3 0 0 0 2-1l1-1 12-34a3 3 0 0 0 1-2Z"/><path d="m672 290 34 263-1 1a3 3 0 0 1-2 2h-2a3 3 0 0 1-3-2l-35-263a3 3 0 0 1 3-3h3a3 3 0 0 1 2 0Z" opacity=".2" style="isolation:isolate" transform="translate(-199 -33)"/><path fill="#6c63ff" d="m474 264 18 25 21 161-11 23-28-209z"/><path fill="#2f2e41" d="M743 588a9 9 0 0 1-5 9 8 8 0 0 1-3 0h-17v82l-1 1-5 5v1l-2 2v1a325 325 0 0 1-3 3l-2 2a9 9 0 0 1-4-3 9 9 0 0 1-1-4v-90h-37a8 8 0 0 1-4 0 9 9 0 0 1-5-7 9 9 0 0 1 1-5 8 8 0 0 1 1-3 9 9 0 0 1 7-2h71a9 9 0 0 1 9 8ZM743 421a27 27 0 0 0-28 27 27 27 0 0 0 22 27v45h18v-99Z"/><path fill="#fd6584" d="M633 352c7 10 17 34 13 45"/></svg>